<svg id="instagram-dark" xmlns="http://www.w3.org/2000/svg" width="22.995" height="23" viewBox="0 0 22.995 23">
  <path id="Path_13" data-name="Path 13" d="M23.386,6.762a8.4,8.4,0,0,0-.535-2.79A5.892,5.892,0,0,0,19.486.607,8.426,8.426,0,0,0,16.7.072C15.464.014,15.073,0,11.951,0S8.437.014,7.211.067A8.407,8.407,0,0,0,4.421.6a5.612,5.612,0,0,0-2.04,1.33A5.663,5.663,0,0,0,1.055,3.967a8.427,8.427,0,0,0-.535,2.79C.462,7.989.449,8.38.449,11.5s.014,3.514.067,4.74a8.4,8.4,0,0,0,.535,2.79A5.891,5.891,0,0,0,4.416,22.4a8.427,8.427,0,0,0,2.79.535c1.226.054,1.617.067,4.74.067s3.514-.013,4.74-.067a8.4,8.4,0,0,0,2.79-.535,5.883,5.883,0,0,0,3.365-3.365,8.432,8.432,0,0,0,.535-2.79c.054-1.227.067-1.618.067-4.74s0-3.514-.058-4.74Zm-2.071,9.391a6.3,6.3,0,0,1-.4,2.134,3.815,3.815,0,0,1-2.184,2.184,6.326,6.326,0,0,1-2.134.4c-1.213.054-1.577.067-4.646.067s-3.437-.013-4.646-.067a6.3,6.3,0,0,1-2.134-.4,3.539,3.539,0,0,1-1.321-.858A3.576,3.576,0,0,1,3,18.291a6.328,6.328,0,0,1-.4-2.134c-.054-1.213-.067-1.577-.067-4.646s.013-3.437.067-4.646A6.3,6.3,0,0,1,3,4.731,3.5,3.5,0,0,1,3.859,3.41,3.57,3.57,0,0,1,5.18,2.552a6.331,6.331,0,0,1,2.134-.4c1.213-.054,1.577-.067,4.646-.067s3.437.014,4.646.067a6.3,6.3,0,0,1,2.134.4,3.537,3.537,0,0,1,1.321.858,3.575,3.575,0,0,1,.858,1.321,6.33,6.33,0,0,1,.4,2.134c.054,1.213.067,1.577.067,4.646s-.014,3.428-.067,4.641Zm0,0" transform="translate(-0.449 0)" fill="#1b3536"/>
  <path id="Path_14" data-name="Path 14" d="M130.857,124.5a5.908,5.908,0,1,0,5.908,5.908A5.91,5.91,0,0,0,130.857,124.5Zm0,9.741a3.833,3.833,0,1,1,3.833-3.833A3.833,3.833,0,0,1,130.857,134.241Zm0,0" transform="translate(-119.355 -118.906)" fill="#1b3536"/>
  <path id="Path_15" data-name="Path 15" d="M365.209,89.981a1.379,1.379,0,1,1-1.38-1.379,1.379,1.379,0,0,1,1.38,1.379Zm0,0" transform="translate(-346.185 -84.621)" fill="#1b3536"/>
</svg>
