<svg xmlns="http://www.w3.org/2000/svg" xmlns:xlink="http://www.w3.org/1999/xlink" width="306" height="191" viewBox="0 0 306 191">
  <defs>
    <clipPath id="clip-path">
      <rect width="306" height="191" fill="none"/>
    </clipPath>
  </defs>
  <g id="Repeat_Grid_1" data-name="Repeat Grid 1" opacity="0.18" clip-path="url(#clip-path)">
    <g transform="translate(-36 -1250)">
      <circle id="Ellipse_2" data-name="Ellipse 2" cx="5" cy="5" r="5" transform="translate(36 1250)" fill="#11b3ba"/>
    </g>
    <g transform="translate(-7 -1250)">
      <circle id="Ellipse_2-2" data-name="Ellipse 2" cx="5" cy="5" r="5" transform="translate(36 1250)" fill="#11b3ba"/>
    </g>
    <g transform="translate(22 -1250)">
      <circle id="Ellipse_2-3" data-name="Ellipse 2" cx="5" cy="5" r="5" transform="translate(36 1250)" fill="#11b3ba"/>
    </g>
    <g transform="translate(51 -1250)">
      <circle id="Ellipse_2-4" data-name="Ellipse 2" cx="5" cy="5" r="5" transform="translate(36 1250)" fill="#11b3ba"/>
    </g>
    <g transform="translate(80 -1250)">
      <circle id="Ellipse_2-5" data-name="Ellipse 2" cx="5" cy="5" r="5" transform="translate(36 1250)" fill="#11b3ba"/>
    </g>
    <g transform="translate(109 -1250)">
      <circle id="Ellipse_2-6" data-name="Ellipse 2" cx="5" cy="5" r="5" transform="translate(36 1250)" fill="#11b3ba"/>
    </g>
    <g transform="translate(138 -1250)">
      <circle id="Ellipse_2-7" data-name="Ellipse 2" cx="5" cy="5" r="5" transform="translate(36 1250)" fill="#11b3ba"/>
    </g>
    <g transform="translate(167 -1250)">
      <circle id="Ellipse_2-8" data-name="Ellipse 2" cx="5" cy="5" r="5" transform="translate(36 1250)" fill="#11b3ba"/>
    </g>
    <g transform="translate(196 -1250)">
      <circle id="Ellipse_2-9" data-name="Ellipse 2" cx="5" cy="5" r="5" transform="translate(36 1250)" fill="#11b3ba"/>
    </g>
    <g transform="translate(225 -1250)">
      <circle id="Ellipse_2-10" data-name="Ellipse 2" cx="5" cy="5" r="5" transform="translate(36 1250)" fill="#11b3ba"/>
    </g>
    <g transform="translate(254 -1250)">
      <circle id="Ellipse_2-11" data-name="Ellipse 2" cx="5" cy="5" r="5" transform="translate(36 1250)" fill="#11b3ba"/>
    </g>
    <g transform="translate(-36 -1221)">
      <circle id="Ellipse_2-12" data-name="Ellipse 2" cx="5" cy="5" r="5" transform="translate(36 1250)" fill="#11b3ba"/>
    </g>
    <g transform="translate(-7 -1221)">
      <circle id="Ellipse_2-13" data-name="Ellipse 2" cx="5" cy="5" r="5" transform="translate(36 1250)" fill="#11b3ba"/>
    </g>
    <g transform="translate(22 -1221)">
      <circle id="Ellipse_2-14" data-name="Ellipse 2" cx="5" cy="5" r="5" transform="translate(36 1250)" fill="#11b3ba"/>
    </g>
    <g transform="translate(51 -1221)">
      <circle id="Ellipse_2-15" data-name="Ellipse 2" cx="5" cy="5" r="5" transform="translate(36 1250)" fill="#11b3ba"/>
    </g>
    <g transform="translate(80 -1221)">
      <circle id="Ellipse_2-16" data-name="Ellipse 2" cx="5" cy="5" r="5" transform="translate(36 1250)" fill="#11b3ba"/>
    </g>
    <g transform="translate(109 -1221)">
      <circle id="Ellipse_2-17" data-name="Ellipse 2" cx="5" cy="5" r="5" transform="translate(36 1250)" fill="#11b3ba"/>
    </g>
    <g transform="translate(138 -1221)">
      <circle id="Ellipse_2-18" data-name="Ellipse 2" cx="5" cy="5" r="5" transform="translate(36 1250)" fill="#11b3ba"/>
    </g>
    <g transform="translate(167 -1221)">
      <circle id="Ellipse_2-19" data-name="Ellipse 2" cx="5" cy="5" r="5" transform="translate(36 1250)" fill="#11b3ba"/>
    </g>
    <g transform="translate(196 -1221)">
      <circle id="Ellipse_2-20" data-name="Ellipse 2" cx="5" cy="5" r="5" transform="translate(36 1250)" fill="#11b3ba"/>
    </g>
    <g transform="translate(225 -1221)">
      <circle id="Ellipse_2-21" data-name="Ellipse 2" cx="5" cy="5" r="5" transform="translate(36 1250)" fill="#11b3ba"/>
    </g>
    <g transform="translate(254 -1221)">
      <circle id="Ellipse_2-22" data-name="Ellipse 2" cx="5" cy="5" r="5" transform="translate(36 1250)" fill="#11b3ba"/>
    </g>
    <g transform="translate(-36 -1192)">
      <circle id="Ellipse_2-23" data-name="Ellipse 2" cx="5" cy="5" r="5" transform="translate(36 1250)" fill="#11b3ba"/>
    </g>
    <g transform="translate(-7 -1192)">
      <circle id="Ellipse_2-24" data-name="Ellipse 2" cx="5" cy="5" r="5" transform="translate(36 1250)" fill="#11b3ba"/>
    </g>
    <g transform="translate(22 -1192)">
      <circle id="Ellipse_2-25" data-name="Ellipse 2" cx="5" cy="5" r="5" transform="translate(36 1250)" fill="#11b3ba"/>
    </g>
    <g transform="translate(51 -1192)">
      <circle id="Ellipse_2-26" data-name="Ellipse 2" cx="5" cy="5" r="5" transform="translate(36 1250)" fill="#11b3ba"/>
    </g>
    <g transform="translate(80 -1192)">
      <circle id="Ellipse_2-27" data-name="Ellipse 2" cx="5" cy="5" r="5" transform="translate(36 1250)" fill="#11b3ba"/>
    </g>
    <g transform="translate(109 -1192)">
      <circle id="Ellipse_2-28" data-name="Ellipse 2" cx="5" cy="5" r="5" transform="translate(36 1250)" fill="#11b3ba"/>
    </g>
    <g transform="translate(138 -1192)">
      <circle id="Ellipse_2-29" data-name="Ellipse 2" cx="5" cy="5" r="5" transform="translate(36 1250)" fill="#11b3ba"/>
    </g>
    <g transform="translate(167 -1192)">
      <circle id="Ellipse_2-30" data-name="Ellipse 2" cx="5" cy="5" r="5" transform="translate(36 1250)" fill="#11b3ba"/>
    </g>
    <g transform="translate(196 -1192)">
      <circle id="Ellipse_2-31" data-name="Ellipse 2" cx="5" cy="5" r="5" transform="translate(36 1250)" fill="#11b3ba"/>
    </g>
    <g transform="translate(225 -1192)">
      <circle id="Ellipse_2-32" data-name="Ellipse 2" cx="5" cy="5" r="5" transform="translate(36 1250)" fill="#11b3ba"/>
    </g>
    <g transform="translate(254 -1192)">
      <circle id="Ellipse_2-33" data-name="Ellipse 2" cx="5" cy="5" r="5" transform="translate(36 1250)" fill="#11b3ba"/>
    </g>
    <g transform="translate(-36 -1163)">
      <circle id="Ellipse_2-34" data-name="Ellipse 2" cx="5" cy="5" r="5" transform="translate(36 1250)" fill="#11b3ba"/>
    </g>
    <g transform="translate(-7 -1163)">
      <circle id="Ellipse_2-35" data-name="Ellipse 2" cx="5" cy="5" r="5" transform="translate(36 1250)" fill="#11b3ba"/>
    </g>
    <g transform="translate(22 -1163)">
      <circle id="Ellipse_2-36" data-name="Ellipse 2" cx="5" cy="5" r="5" transform="translate(36 1250)" fill="#11b3ba"/>
    </g>
    <g transform="translate(51 -1163)">
      <circle id="Ellipse_2-37" data-name="Ellipse 2" cx="5" cy="5" r="5" transform="translate(36 1250)" fill="#11b3ba"/>
    </g>
    <g transform="translate(80 -1163)">
      <circle id="Ellipse_2-38" data-name="Ellipse 2" cx="5" cy="5" r="5" transform="translate(36 1250)" fill="#11b3ba"/>
    </g>
    <g transform="translate(109 -1163)">
      <circle id="Ellipse_2-39" data-name="Ellipse 2" cx="5" cy="5" r="5" transform="translate(36 1250)" fill="#11b3ba"/>
    </g>
    <g transform="translate(138 -1163)">
      <circle id="Ellipse_2-40" data-name="Ellipse 2" cx="5" cy="5" r="5" transform="translate(36 1250)" fill="#11b3ba"/>
    </g>
    <g transform="translate(167 -1163)">
      <circle id="Ellipse_2-41" data-name="Ellipse 2" cx="5" cy="5" r="5" transform="translate(36 1250)" fill="#11b3ba"/>
    </g>
    <g transform="translate(196 -1163)">
      <circle id="Ellipse_2-42" data-name="Ellipse 2" cx="5" cy="5" r="5" transform="translate(36 1250)" fill="#11b3ba"/>
    </g>
    <g transform="translate(225 -1163)">
      <circle id="Ellipse_2-43" data-name="Ellipse 2" cx="5" cy="5" r="5" transform="translate(36 1250)" fill="#11b3ba"/>
    </g>
    <g transform="translate(254 -1163)">
      <circle id="Ellipse_2-44" data-name="Ellipse 2" cx="5" cy="5" r="5" transform="translate(36 1250)" fill="#11b3ba"/>
    </g>
    <g transform="translate(-36 -1134)">
      <circle id="Ellipse_2-45" data-name="Ellipse 2" cx="5" cy="5" r="5" transform="translate(36 1250)" fill="#11b3ba"/>
    </g>
    <g transform="translate(-7 -1134)">
      <circle id="Ellipse_2-46" data-name="Ellipse 2" cx="5" cy="5" r="5" transform="translate(36 1250)" fill="#11b3ba"/>
    </g>
    <g transform="translate(22 -1134)">
      <circle id="Ellipse_2-47" data-name="Ellipse 2" cx="5" cy="5" r="5" transform="translate(36 1250)" fill="#11b3ba"/>
    </g>
    <g transform="translate(51 -1134)">
      <circle id="Ellipse_2-48" data-name="Ellipse 2" cx="5" cy="5" r="5" transform="translate(36 1250)" fill="#11b3ba"/>
    </g>
    <g transform="translate(80 -1134)">
      <circle id="Ellipse_2-49" data-name="Ellipse 2" cx="5" cy="5" r="5" transform="translate(36 1250)" fill="#11b3ba"/>
    </g>
    <g transform="translate(109 -1134)">
      <circle id="Ellipse_2-50" data-name="Ellipse 2" cx="5" cy="5" r="5" transform="translate(36 1250)" fill="#11b3ba"/>
    </g>
    <g transform="translate(138 -1134)">
      <circle id="Ellipse_2-51" data-name="Ellipse 2" cx="5" cy="5" r="5" transform="translate(36 1250)" fill="#11b3ba"/>
    </g>
    <g transform="translate(167 -1134)">
      <circle id="Ellipse_2-52" data-name="Ellipse 2" cx="5" cy="5" r="5" transform="translate(36 1250)" fill="#11b3ba"/>
    </g>
    <g transform="translate(196 -1134)">
      <circle id="Ellipse_2-53" data-name="Ellipse 2" cx="5" cy="5" r="5" transform="translate(36 1250)" fill="#11b3ba"/>
    </g>
    <g transform="translate(225 -1134)">
      <circle id="Ellipse_2-54" data-name="Ellipse 2" cx="5" cy="5" r="5" transform="translate(36 1250)" fill="#11b3ba"/>
    </g>
    <g transform="translate(254 -1134)">
      <circle id="Ellipse_2-55" data-name="Ellipse 2" cx="5" cy="5" r="5" transform="translate(36 1250)" fill="#11b3ba"/>
    </g>
    <g transform="translate(-36 -1105)">
      <circle id="Ellipse_2-56" data-name="Ellipse 2" cx="5" cy="5" r="5" transform="translate(36 1250)" fill="#11b3ba"/>
    </g>
    <g transform="translate(-7 -1105)">
      <circle id="Ellipse_2-57" data-name="Ellipse 2" cx="5" cy="5" r="5" transform="translate(36 1250)" fill="#11b3ba"/>
    </g>
    <g transform="translate(22 -1105)">
      <circle id="Ellipse_2-58" data-name="Ellipse 2" cx="5" cy="5" r="5" transform="translate(36 1250)" fill="#11b3ba"/>
    </g>
    <g transform="translate(51 -1105)">
      <circle id="Ellipse_2-59" data-name="Ellipse 2" cx="5" cy="5" r="5" transform="translate(36 1250)" fill="#11b3ba"/>
    </g>
    <g transform="translate(80 -1105)">
      <circle id="Ellipse_2-60" data-name="Ellipse 2" cx="5" cy="5" r="5" transform="translate(36 1250)" fill="#11b3ba"/>
    </g>
    <g transform="translate(109 -1105)">
      <circle id="Ellipse_2-61" data-name="Ellipse 2" cx="5" cy="5" r="5" transform="translate(36 1250)" fill="#11b3ba"/>
    </g>
    <g transform="translate(138 -1105)">
      <circle id="Ellipse_2-62" data-name="Ellipse 2" cx="5" cy="5" r="5" transform="translate(36 1250)" fill="#11b3ba"/>
    </g>
    <g transform="translate(167 -1105)">
      <circle id="Ellipse_2-63" data-name="Ellipse 2" cx="5" cy="5" r="5" transform="translate(36 1250)" fill="#11b3ba"/>
    </g>
    <g transform="translate(196 -1105)">
      <circle id="Ellipse_2-64" data-name="Ellipse 2" cx="5" cy="5" r="5" transform="translate(36 1250)" fill="#11b3ba"/>
    </g>
    <g transform="translate(225 -1105)">
      <circle id="Ellipse_2-65" data-name="Ellipse 2" cx="5" cy="5" r="5" transform="translate(36 1250)" fill="#11b3ba"/>
    </g>
    <g transform="translate(254 -1105)">
      <circle id="Ellipse_2-66" data-name="Ellipse 2" cx="5" cy="5" r="5" transform="translate(36 1250)" fill="#11b3ba"/>
    </g>
    <g transform="translate(-36 -1076)">
      <circle id="Ellipse_2-67" data-name="Ellipse 2" cx="5" cy="5" r="5" transform="translate(36 1250)" fill="#11b3ba"/>
    </g>
    <g transform="translate(-7 -1076)">
      <circle id="Ellipse_2-68" data-name="Ellipse 2" cx="5" cy="5" r="5" transform="translate(36 1250)" fill="#11b3ba"/>
    </g>
    <g transform="translate(22 -1076)">
      <circle id="Ellipse_2-69" data-name="Ellipse 2" cx="5" cy="5" r="5" transform="translate(36 1250)" fill="#11b3ba"/>
    </g>
    <g transform="translate(51 -1076)">
      <circle id="Ellipse_2-70" data-name="Ellipse 2" cx="5" cy="5" r="5" transform="translate(36 1250)" fill="#11b3ba"/>
    </g>
    <g transform="translate(80 -1076)">
      <circle id="Ellipse_2-71" data-name="Ellipse 2" cx="5" cy="5" r="5" transform="translate(36 1250)" fill="#11b3ba"/>
    </g>
    <g transform="translate(109 -1076)">
      <circle id="Ellipse_2-72" data-name="Ellipse 2" cx="5" cy="5" r="5" transform="translate(36 1250)" fill="#11b3ba"/>
    </g>
    <g transform="translate(138 -1076)">
      <circle id="Ellipse_2-73" data-name="Ellipse 2" cx="5" cy="5" r="5" transform="translate(36 1250)" fill="#11b3ba"/>
    </g>
    <g transform="translate(167 -1076)">
      <circle id="Ellipse_2-74" data-name="Ellipse 2" cx="5" cy="5" r="5" transform="translate(36 1250)" fill="#11b3ba"/>
    </g>
    <g transform="translate(196 -1076)">
      <circle id="Ellipse_2-75" data-name="Ellipse 2" cx="5" cy="5" r="5" transform="translate(36 1250)" fill="#11b3ba"/>
    </g>
    <g transform="translate(225 -1076)">
      <circle id="Ellipse_2-76" data-name="Ellipse 2" cx="5" cy="5" r="5" transform="translate(36 1250)" fill="#11b3ba"/>
    </g>
    <g transform="translate(254 -1076)">
      <circle id="Ellipse_2-77" data-name="Ellipse 2" cx="5" cy="5" r="5" transform="translate(36 1250)" fill="#11b3ba"/>
    </g>
  </g>
</svg>
