<svg xmlns="http://www.w3.org/2000/svg" width="24.228" height="24.279" viewBox="0 0 24.228 24.279">
  <g id="phone" transform="translate(-0.539)">
    <g id="Group_159" data-name="Group 159" transform="translate(0.539 0)">
      <path id="Path_31" data-name="Path 31" d="M24.132,17.819,20.744,14.43a2.254,2.254,0,0,0-3.751.847A2.306,2.306,0,0,1,14.33,16.73c-2.42-.605-5.687-3.751-6.292-6.292A2.193,2.193,0,0,1,9.49,7.775a2.254,2.254,0,0,0,.847-3.751L6.949.635a2.417,2.417,0,0,0-3.267,0l-2.3,2.3c-2.3,2.42.242,8.834,5.929,14.521s12.1,8.35,14.521,5.929l2.3-2.3A2.417,2.417,0,0,0,24.132,17.819Z" transform="translate(-0.539 0)" fill="#11b3ba"/>
    </g>
  </g>
</svg>
