<svg id="twitter-primary" xmlns="http://www.w3.org/2000/svg" width="24.419" height="19.84" viewBox="0 0 24.419 19.84">
  <g id="Group_76" data-name="Group 76" transform="translate(0 0)">
    <path id="Path_16" data-name="Path 16" d="M24.419,50.349a10.438,10.438,0,0,1-2.884.791,4.978,4.978,0,0,0,2.2-2.767,10,10,0,0,1-3.174,1.212,5.006,5.006,0,0,0-8.66,3.423,5.155,5.155,0,0,0,.116,1.142A14.17,14.17,0,0,1,1.7,48.913,5.007,5.007,0,0,0,3.239,55.6a4.944,4.944,0,0,1-2.262-.617v.055a5.029,5.029,0,0,0,4.011,4.919,5,5,0,0,1-1.313.165,4.426,4.426,0,0,1-.948-.085,5.054,5.054,0,0,0,4.678,3.487A10.059,10.059,0,0,1,1.2,65.663,9.378,9.378,0,0,1,0,65.594,14.094,14.094,0,0,0,7.68,67.84,14.15,14.15,0,0,0,21.928,53.6c0-.221-.008-.435-.018-.647A9.987,9.987,0,0,0,24.419,50.349Z" transform="translate(0 -48)" fill="#0b7277"/>
  </g>
</svg>
